<?xml version="1.0" encoding="UTF-8"?>
<svg id="Layer_1" data-name="Layer 1" xmlns="http://www.w3.org/2000/svg" viewBox="0 0 300 300">
  <defs>
    <style>
      .cls-1 {
        fill: #00838f;
        stroke-width: 0px;
      }
    </style>
  </defs>
  <path class="cls-1" d="m255.97,56.16c-.89-2.24-2.46-3.35-4.69-3.35H104.32c-2.24,0-2.91,1.67-2.06,3.91,24.57,62.37-83.6,124.74-58.24,187.12.89,2.24,2.46,3.36,4.69,3.35h146.97c2.24,0,2.91-1.67,2.06-3.91-24.57-62.37,83.6-124.74,58.24-187.12ZM79.76,228.33c-1.49,0-2.98,0-4.47.01-2.22,0-3-.66-3.16-2.9-4.1-50.36,64.48-100.72,65.59-151.08.07-2.24.78-2.69,3.03-2.69,1.49,0,2.98,0,4.47-.01,2.22,0,2.63.44,2.56,2.68-1.09,50.36-69.67,100.72-65.59,151.08.16,2.24-.18,2.91-2.43,2.92Zm39.02,0c-1.49,0-2.98,0-4.47.01-2.22,0-2.99-.66-3.15-2.9-4-50.36,64.59-100.72,65.6-151.08.06-2.24.78-2.69,3.02-2.69,1.49,0,2.98,0,4.47-.01,2.23,0,2.63.44,2.57,2.68-.99,50.36-69.58,100.72-65.6,151.08.16,2.24-.19,2.91-2.43,2.91Zm41.25,0c-1.49,0-2.98,0-4.47,0-2.22,0-3-.66-3.16-2.9-4.21-50.36,64.37-100.72,65.58-151.08.07-2.24.79-2.69,3.03-2.69,1.49,0,2.98,0,4.47-.01,2.22,0,2.63.44,2.56,2.68-1.19,50.36-69.76,100.72-65.58,151.08.17,2.24-.18,2.91-2.42,2.92Z"/>
</svg>