<?xml version="1.0" encoding="UTF-8"?>
<svg id="Layer_1" data-name="Layer 1" xmlns="http://www.w3.org/2000/svg" viewBox="0 0 800 300">
  <defs>
    <style>
      .cls-1 {
        fill: #00838f;
        stroke-width: 0px;
      }
    </style>
  </defs>
  <path class="cls-1" d="m190.1,89.04c-.58-1.45-1.6-2.18-3.04-2.18h-95.47c-1.46,0-1.89,1.09-1.34,2.54,15.96,40.52-54.31,81.03-37.83,121.55.58,1.45,1.6,2.18,3.04,2.18h95.47c1.46,0,1.89-1.09,1.34-2.54-15.96-40.52,54.3-81.03,37.83-121.55Zm-114.46,111.84c-.97,0-1.93,0-2.9,0-1.44,0-1.95-.43-2.05-1.88-2.67-32.71,41.88-65.43,42.6-98.14.04-1.45.51-1.75,1.97-1.75.97,0,1.94,0,2.9,0,1.45,0,1.71.29,1.66,1.74-.71,32.71-45.26,65.43-42.61,98.14.11,1.46-.12,1.89-1.58,1.89Zm25.35,0c-.97,0-1.93,0-2.9,0-1.44,0-1.94-.43-2.05-1.89-2.6-32.71,41.95-65.43,42.61-98.14.04-1.45.5-1.75,1.96-1.75.97,0,1.94,0,2.9,0,1.45,0,1.71.29,1.67,1.74-.64,32.71-45.2,65.43-42.61,98.14.1,1.45-.12,1.89-1.58,1.89Zm26.8,0c-.97,0-1.94,0-2.9,0-1.44,0-1.95-.43-2.06-1.88-2.73-32.71,41.81-65.43,42.6-98.14.05-1.45.51-1.75,1.97-1.75.97,0,1.94,0,2.9,0,1.44,0,1.71.29,1.66,1.74-.77,32.71-45.32,65.43-42.6,98.14.11,1.45-.11,1.89-1.57,1.9Z"/>
  <g>
    <path class="cls-1" d="m207.56,199.46c-1.75-23.2,20.09-46.4,33.15-69.6.72-1.02,1.45-1.6,2.61-1.6,1.02,0,2.04,0,3.06,0,1.31,0,1.45.58.73,1.6-13.1,23.2-35,46.4-33.31,69.6-.07,1.02-.26,1.6-1.57,1.6-1.02,0-2.03,0-3.05,0-1.16,0-1.7-.58-1.63-1.6Zm42.28-94.93c.14-1.36.21-2.72.2-4.08-.07-.73.32-1.31,1.63-1.32,1.11,0,2.23,0,3.34,0,1.31,0,1.65.58,1.57,1.31.06,1.36.04,2.72-.06,4.08-.16.73-.65,1.31-1.82,1.31-1.16,0-2.33,0-3.49,0-1.16,0-1.54-.58-1.38-1.31Z"/>
    <path class="cls-1" d="m233.14,199.4c-1.66-23.2,20.25-46.4,33.34-69.6.43-1.02,1.3-1.6,2.61-1.6.97,0,1.94,0,2.91,0,1.45,0,1.31.58.74,1.6-1.31,2.28-2.71,4.56-4.16,6.85.44,0,.87,0,1.31,0,7.31-5.69,16.09-9.06,24.98-9.08,1.8,0,3.59-.01,5.39-.02,15.77-.04,20.06,8.09,8.88,24.55-10.41,15.72-20.1,31.45-19.01,47.17.07,1.02-.27,1.6-1.72,1.61-.97,0-1.94,0-2.91,0-1.3,0-1.55-.58-1.77-1.6-1.07-15.63,8.52-31.26,18.89-46.88,8.26-12.23,7.05-18.92-5.95-18.88-2.09,0-4.17.01-6.26.02-12.33.03-24.12,7.18-32.01,18.83-10.43,15.68-20.09,31.35-19,47.03.22,1.02-.12,1.6-1.57,1.6-.97,0-1.94,0-2.91,0-1.31,0-1.7-.58-1.77-1.6Z"/>
    <path class="cls-1" d="m316.57,185.21c4.87-17.13,18.99-34.27,29.32-51.4-3.3,0-6.6.02-9.9.02-1.02,0-1.36-.29-.8-1.16.7-1.17,1.37-2.33,2.03-3.5.53-.87,1.18-1.16,2.2-1.17,3.3,0,6.6-.02,9.9-.03,2.41-4.47,4.46-8.93,5.92-13.4.19-1.02.92-1.6,2.23-1.61,1.02,0,2.04,0,3.06,0,1.16,0,1.31.58.97,1.6-1.46,4.47-3.51,8.93-5.92,13.4,3.69,0,7.38-.02,11.07-.03,1.16,0,1.53.28,1,1.16-.65,1.16-1.33,2.33-2.03,3.49-.56.88-1.38,1.17-2.4,1.17-3.69,0-7.38.02-11.07.03-10.04,16.7-23.69,33.39-28.87,50.09-2.61,9.17.7,11.64,7.77,11.62,1.6,0,2.21.72,2.18,1.6.01.87.06,1.75.14,2.62.14,1.17-1.05,1.75-4.55,1.76-8.72.02-15.31-4.62-12.24-16.27Z"/>
    <path class="cls-1" d="m350.31,199.1c-1.45-23.2,20.52-46.4,33.53-69.6.42-1.02,1.3-1.6,2.61-1.6.97,0,1.94,0,2.91,0,1.46,0,1.31.58.74,1.6-1.31,2.28-2.7,4.56-4.15,6.85.44,0,.87,0,1.31,0,7.3-5.69,15.77-9.06,24.81-9.08,1.02,0,2.04,0,3.06,0,12.53-.03,15.06,6.65,7.53,17.86-.45.68-.9,1.36-1.36,2.04-.62.87-1.37,1.31-2.54,1.31-.92,0-1.84,0-2.77,0-1.02,0-1.14-.44-.41-1.6,5.08-7.86,6.77-13.68-4.32-13.65-1.17,0-2.33,0-3.5,0-12.62.04-24.09,7.19-31.99,18.84-10.44,15.68-20.18,31.35-19.22,47.03.21,1.02-.13,1.6-1.59,1.61-.97,0-1.94,0-2.91,0-1.31,0-1.69-.58-1.76-1.6Z"/>
    <path class="cls-1" d="m417.04,176.95c3.77-8.54,9.33-17.08,15.04-25.63,10.77-15.73,22.86-24.19,39.25-24.23,2.43,0,4.85-.01,7.28-.02,15.92-.04,21.18,8.38,10.41,24.1-5.72,8.54-11.28,17.08-15.07,25.63-6.93,15.87-11.99,24.34-28.57,24.38-2.42,0-4.85.01-7.27.02-15.54.04-27.96-8.38-21.08-24.25Zm50.65-.13c3.74-8.49,9.22-16.99,14.87-25.48,7.84-11.5,6.36-18.33-6.49-18.3-2.47,0-4.95.01-7.43.02-13.07.03-22.52,6.89-30.3,18.25-5.67,8.54-11.17,17.08-14.9,25.62-5.11,11.5.8,18.33,13.47,18.3,2.47,0,4.94-.01,7.42-.02,13.21-.03,18.24-6.89,23.37-18.39Z"/>
    <path class="cls-1" d="m492.34,198.73c-1.21-21.79,18.09-43.58,31.07-65.38-2.62,0-5.24.01-7.86.02-1.02,0-1.36-.29-.76-1.31.66-1.07,1.3-2.13,1.93-3.2.56-1.02,1.21-1.31,2.38-1.31,2.57,0,5.14-.01,7.72-.02,1.47-2.77,2.8-5.53,3.94-8.3,5.63-13.69,10.27-20.84,23.89-20.87,8.14-.02,16.28-.04,24.42-.06,1.3,0,1.66.58,1.83,1.6.63,32.91-44.47,65.81-42.91,98.72-.09,1.02-.3,1.6-1.61,1.61-1.02,0-2.04,0-3.05,0-1.16,0-1.68-.58-1.59-1.6-1.52-31.45,39.59-62.9,42.68-94.35-6.4.02-12.8.03-19.2.05-10.6.03-14.05,5.86-18.73,16.49-.98,2.23-2.08,4.47-3.27,6.7,6.79-.02,13.59-.04,20.38-.05,1.02,0,1.39.29.97,1.31-.67,1.07-1.36,2.14-2.07,3.2-.45,1.02-1.28,1.31-2.44,1.31-6.7.02-13.4.03-20.09.05-13.07,21.79-32.47,43.59-31.37,65.38.05,1.02-.29,1.6-1.6,1.61-1.02,0-2.04,0-3.05,0-1.31,0-1.54-.58-1.6-1.6Z"/>
    <path class="cls-1" d="m560.71,176.58c3.83-8.54,9.41-17.08,15.12-25.63,10.77-15.73,22.81-24.19,39.2-24.24,2.43,0,4.85-.01,7.28-.02,15.92-.04,21.23,8.38,10.46,24.11-5.72,8.54-11.31,17.08-15.16,25.63-7.03,15.87-12.21,24.34-28.78,24.38-2.42,0-4.85.01-7.27.02-15.54.04-27.85-8.38-20.87-24.25Zm50.66-.13c3.79-8.49,9.3-16.99,14.95-25.48,7.85-11.5,6.33-18.33-6.52-18.3-2.48,0-4.95.01-7.43.02-13.07.03-22.49,6.89-30.27,18.25-5.67,8.54-11.2,17.08-14.98,25.63-5.18,11.5.65,18.33,13.32,18.3,2.47,0,4.94-.01,7.42-.02,13.21-.03,18.31-6.89,23.51-18.39Z"/>
    <path class="cls-1" d="m640.15,197.76c-6.37-22.84,9.36-45.69,16.29-68.53.46-1.16.96-2.04,2.42-2.04.97,0,1.94,0,2.91,0,1.45,0,1.1.87.93,2.03-6.39,21.39-20.5,42.78-16.96,64.17.15,0,.29,0,.44,0,7.9-21.42,33.51-42.84,51.32-64.26.9-1.17,1.84-2.04,3.29-2.04,1.94,0,3.88-.01,5.82-.02,1.45,0,1.1.87.79,2.03-5.63,21.39-19.03,42.78-14.83,64.16.19,0,.39,0,.58,0,7.15-21.42,31.94-42.83,48.9-64.25,1.04-1.17,1.83-2.04,3.29-2.04,1.26,0,2.52,0,3.79,0,1.46,0,1.1.87.06,2.03-18.42,22.88-45.78,45.75-51.03,68.63-.42,1.46-1.29,2.19-2.9,2.19-1.79,0-3.59,0-5.38.01-1.45,0-2.03-.72-2.63-2.18-6.43-20.76,5.35-41.51,12.15-62.27h-.58c-18.69,20.79-42.37,41.58-47.76,62.37-.42,1.46-1.14,2.19-2.74,2.19-1.79,0-3.59,0-5.38.01-1.45,0-2.33-.72-2.78-2.18Z"/>
  </g>
</svg>